<?xml version="1.0" encoding="utf-8"?>
<!-- Generator: Adobe Illustrator 22.0.0, SVG Export Plug-In . SVG Version: 6.00 Build 0)  -->
<svg version="1.1" xmlns="http://www.w3.org/2000/svg" xmlns:xlink="http://www.w3.org/1999/xlink" x="0px" y="0px"
	 viewBox="0 0 1920 1080" style="enable-background:new 0 0 1920 1080;" xml:space="preserve">
<style type="text/css">
	.st0{fill:#37BF47;}
	.st1{fill:#258030;}
	.st2{fill:none;stroke:#FFFF00;stroke-width:8;stroke-miterlimit:10;}
	.st3{fill:#134219;}
	.st4{fill:#132819;}
	.st5{fill:#325ABF;}
	.st6{fill:#3246BF;}
	.st7{fill:#7C4DFF;}
	.st8{fill:#F7F7F7;}
	.st9{opacity:0.3;fill:#444444;enable-background:new    ;}
</style>
<g id="shadows">
	<g>
		<g>
			<polygon class="st0" points="1192.1,719.9 954.6,324.8 1174.9,309.1 1412.4,704.2 			"/>
			<polygon class="st1" points="955,325 877,468 1114,877 1192,720 			"/>
			<polygon class="st0" points="1114,877 915,886 679,469 877,469 			"/>
			<path class="st2" d="M901.7,862.6c-1.2-1.1,67.8,13.9,72.8-23.1s-31-80,8-85s62,55,72,55s20.3-0.1,20.3-0.1s42.7-37.9,39.7-81.9
				s-83-139-80-161s-9-81,0-84s70-30,80-75s52,6,52,6s-17,131,48,164s52-2,99,49s88.4,60.2,88.4,60.2"/>
			<path class="st3" d="M733.3,565"/>
			<path class="st3" d="M741.2,578.9c0,0,56.8-40.9,101.8,13.1s65,23,73,35s-1,47-14,57s-45-1-53,0s-41.2,12.6-41.2,12.6
				L741.2,578.9z"/>
			<path class="st3" d="M1294.1,712.6c0,0,6.9-65.6-30.1-70.6s-69-33-80-15s-2.9,39-17.4,50.5C1152,689,1135,739,1135,745
				s20,50,20,50l37-75L1294.1,712.6z"/>
			<path class="st4" d="M1166.6,677.4C1166.6,677.4,1166.6,677.5,1166.6,677.4C1152,689,1135,739,1135,745s20,50,20,50l37-75l-25-42
				L1166.6,677.4z"/>
			<path class="st4" d="M933.2,365c0,0,46.8,33,39.8,62s-20,58-40,56s-15-46-31-39s6,20-5,25s-20-9-20-9L933.2,365z"/>
			<path class="st5" d="M1262.1,454.1c0,0-72.1-5.1-70.1,38.9s42,73,70,80s83.2,19.3,83.2,19.3L1262.1,454.1z"/>
			<path class="st6" d="M865,553c0,0,46,19,54,11s10-64,14-62s50-38,60-19s28,103,25,118s-63,36-63,36s-74-44-78-36s-28-36-28-36
				L865,553z"/>
			<path class="st5" d="M924.1,550.1c-1.4,6.6-3.1,11.8-5.1,13.9c-8,8-54-11-54-11l-16,12c0,0,24,44,28,36s78,36,78,36
				s6.8-2.4,16-6.1L924.1,550.1z"/>
		</g>
		<g>
			<circle class="st7" cx="1071.6" cy="325.6" r="172.6"/>
			<path id="XMLID_10_" class="st8" d="M1002.6,275.4h148.8c1.9,0,3.4-1.5,3.4-3.4v-27.9c0-18.6-15.1-33.6-33.6-33.6h-89.4
				c-26,0-47.1,21-47.1,47l0,0C984.7,267.5,992.7,275.4,1002.6,275.4z"/>
			<path id="XMLID_9_" class="st8" d="M1017.1,399.1h89c26.8,0,48.7-21.8,48.7-48.7l0,0c0-8.9-7.2-16.2-16.2-16.2H987.9
				c-1.8,0-3.2,1.5-3.2,3.2v29.2C984.7,384.5,999.2,399.1,1017.1,399.1z"/>
			<path id="XMLID_8_" class="st8" d="M991.3,272l111.1,111.1c7.3,7.3,19.3,7.3,26.6,0l19.3-19.3c7.3-7.3,7.3-19.3,0-26.6
				l-111.1-111.1c-7.3-7.3-19.3-7.3-26.6,0l-19.3,19.3C984,252.7,984,264.7,991.3,272z"/>
			<polygon id="XMLID_7_" class="st9" points="1104.3,385 1039,334.2 1053.5,334.2 			"/>
			<polygon id="XMLID_1_" class="st9" points="1035.4,224.5 1086.9,275.9 1104.3,275.9 			"/>
			<path class="st7" d="M1404.8,526.6"/>
			<path class="st7" d="M1084.5,643.3l131-222.4H927.7l131,222.4C1064.5,653.1,1078.8,653.1,1084.5,643.3z"/>
		</g>
	</g>
</g>
<g id="Layer_2">
</g>
</svg>
